<?xml version="1.0" standalone="no"?>
<!DOCTYPE svg PUBLIC "-//W3C//DTD SVG 20010904//EN"
 "http://www.w3.org/TR/2001/REC-SVG-20010904/DTD/svg10.dtd">
<svg version="1.0" xmlns="http://www.w3.org/2000/svg"
 width="260.000000pt" height="260.000000pt" viewBox="0 0 260.000000 260.000000"
 preserveAspectRatio="xMidYMid meet">
<metadata>
Created by potrace 1.14, written by Peter Selinger 2001-2017
</metadata>
<g transform="translate(0.000000,260.000000) scale(0.100000,-0.100000)"
fill="#000000" stroke="none">
<path d="M1075 2519 c-123 -21 -280 -83 -445 -175 -112 -63 -311 -262 -374
-374 -89 -158 -154 -321 -171 -429 -4 -20 -9 -48 -11 -63 l-6 -28 472 0 472 0
45 51 c25 27 69 62 97 77 45 24 62 27 146 27 84 0 101 -3 146 -27 28 -15 72
-50 97 -77 l45 -51 466 0 467 0 -6 38 c-14 81 -70 265 -102 332 -83 173 -196
322 -328 431 -154 127 -365 227 -563 265 -81 15 -363 18 -447 3z"/>
<path d="M85 1103 c12 -84 65 -244 111 -335 186 -375 529 -619 953 -679 151
-21 373 2 536 56 92 30 251 113 331 172 265 198 419 449 489 801 l7 32 -466 0
c-452 0 -465 -1 -471 -20 -10 -33 -103 -108 -161 -129 -71 -27 -157 -27 -228
0 -58 21 -151 96 -161 129 -6 19 -19 20 -477 20 l-470 0 7 -47z"/>
</g>
</svg>
